<svg width="50" height="50" viewBox="0 0 50 50" fill="none" xmlns="http://www.w3.org/2000/svg">
<path d="M1.61482 0C1.61482 0 20.8889 0 28.3492 0C35.8095 0 40.0431 4.83871 40.0431 12.9032C40.0431 20.9677 40.0431 44.0408 40.0431 44.0408L47.2435 36.2576C47.8741 35.5758 48.8966 35.5758 49.5269 36.2576C50.1577 36.9394 50.1577 38.0449 49.5269 38.7258L39.5703 49.4886C38.9399 50.1705 37.9172 50.1705 37.287 49.4886L27.33 38.7258C27.0143 38.385 26.857 37.9382 26.857 37.4917C26.857 37.0452 27.0143 36.5984 27.33 36.2576C27.9603 35.5758 28.9828 35.5758 29.613 36.2576L36.8138 44.0408C36.8138 44.0408 36.8138 18.5484 36.8138 12.9032C36.8138 7.25806 33.5714 3.49081 28.3492 3.49081C23.127 3.49081 1.61482 3.49081 1.61482 3.49081C0.723082 3.49081 0 2.70917 0 1.74541C0 0.781446 0.723082 0 1.61482 0Z" fill="#FFD749"/>
</svg>
