<svg width="53" height="53" viewBox="0 0 53 53" fill="none" xmlns="http://www.w3.org/2000/svg">
<path d="M50.7057 24.2057H7.83279L18.0629 13.9749C18.9591 13.0792 18.9591 11.6262 18.0629 10.7307C17.1667 9.83445 15.7137 9.83445 14.8188 10.7307L0.672166 24.8776C-0.224055 25.7732 -0.224055 27.2264 0.672166 28.1218L14.8188 42.2693C15.2668 42.7176 15.8539 42.9414 16.4408 42.9414C17.0278 42.9414 17.6149 42.7176 18.0629 42.2693C18.9591 41.3736 18.9591 39.9207 18.0629 39.0252L7.83279 28.7939H50.7057C51.9726 28.7939 53 27.7667 53 26.4997C53 25.2328 51.9727 24.2057 50.7057 24.2057Z" fill="#FFD749"/>
</svg>
