<svg width="50" height="50" viewBox="0 0 50 50" fill="none" xmlns="http://www.w3.org/2000/svg">
<path d="M48.3852 0C48.3852 0 29.1111 0 21.6508 0C14.1905 0 9.95691 4.83871 9.95691 12.9032C9.95691 20.9677 9.95691 44.0408 9.95691 44.0408L2.7565 36.2576C2.12595 35.5758 1.10343 35.5758 0.473053 36.2576C-0.157684 36.9394 -0.157684 38.0449 0.473053 38.7258L10.4297 49.4886C11.0601 50.1705 12.0828 50.1705 12.713 49.4886L22.67 38.7258C22.9857 38.385 23.143 37.9382 23.143 37.4917C23.143 37.0452 22.9857 36.5984 22.67 36.2576C22.0397 35.5758 21.0172 35.5758 20.387 36.2576L13.1862 44.0408C13.1862 44.0408 13.1862 18.5484 13.1862 12.9032C13.1862 7.25806 16.4286 3.49081 21.6508 3.49081C26.873 3.49081 48.3852 3.49081 48.3852 3.49081C49.2769 3.49081 50 2.70917 50 1.74541C50 0.781446 49.2769 0 48.3852 0Z" fill="#FFD749"/>
</svg>
